<?xml version="1.0" standalone="no"?>
<!DOCTYPE svg PUBLIC "-//W3C//DTD SVG 20010904//EN"
 "http://www.w3.org/TR/2001/REC-SVG-20010904/DTD/svg10.dtd">
<svg version="1.0" xmlns="http://www.w3.org/2000/svg"
 width="414.000000pt" height="534.000000pt" viewBox="0 0 414.000000 534.000000"
 preserveAspectRatio="xMidYMid meet">
<metadata>
Created by potrace 1.16, written by Peter Selinger 2001-2019
</metadata>
<g transform="translate(0.000000,534.000000) scale(0.100000,-0.100000)"
fill="#b30e15" stroke="none">
<path d="M1020 5275 c-461 -68 -819 -386 -947 -840 l-28 -100 0 -1050 0 -1050
23 -94 c103 -410 412 -728 812 -835 163 -44 268 -48 1250 -43 1002 4 968 2
1157 65 114 39 187 75 280 141 234 165 382 380 461 671 l26 95 3 970 c4 1030
2 1096 -42 1250 -127 447 -506 767 -975 825 -129 15 -1910 12 -2020 -5z m830
-346 c7 -11 17 -42 24 -67 8 -26 22 -68 32 -94 17 -46 17 -49 1 -65 -28 -28
-46 -7 -83 97 -37 104 -40 120 -22 138 18 18 36 15 48 -9z m466 -4 c7 -17 -41
-176 -63 -212 -7 -13 -22 -23 -33 -23 -27 0 -27 46 1 131 37 114 40 119 66
119 13 0 26 -7 29 -15z m-170 -530 c62 -31 94 -82 101 -164 8 -85 -18 -165
-71 -217 -128 -128 -297 -37 -313 169 -4 51 -1 73 16 112 28 63 46 83 96 106
56 26 112 24 171 -6z m-502 -128 c10 -7 17 -22 14 -33 -3 -17 -14 -19 -129
-22 -107 -2 -128 0 -140 14 -12 14 -10 19 10 35 19 16 40 19 125 19 69 0 108
-4 120 -13z m1062 -1 c15 -12 17 -18 8 -33 -10 -15 -28 -18 -131 -21 -101 -2
-122 0 -134 14 -12 14 -10 19 10 35 19 16 40 19 125 19 73 0 108 -4 122 -14z
m-641 -329 c33 0 90 4 126 8 194 22 392 -105 499 -321 43 -88 40 -116 -25
-231 -30 -54 -77 -161 -105 -238 -28 -76 -58 -147 -67 -157 -34 -38 -96 -16
-110 40 -15 60 51 256 126 377 57 92 59 85 -28 158 l-78 65 -6 -65 c-4 -51
-15 -84 -56 -165 -30 -59 -51 -114 -51 -132 0 -45 26 -129 62 -201 64 -126
124 -309 142 -433 l6 -43 -156 3 -157 3 -22 78 c-28 97 -62 137 -115 137 -66
0 -83 -25 -120 -177 l-11 -43 -159 0 c-183 0 -169 -10 -145 105 23 108 52 188
124 340 58 123 66 148 69 210 4 69 2 74 -47 168 -45 86 -51 104 -51 158 l0 60
-64 -53 c-35 -29 -71 -58 -81 -63 -16 -9 -11 -22 48 -135 77 -148 107 -231
107 -300 0 -104 -65 -152 -118 -87 -7 8 -26 60 -42 116 -17 57 -62 165 -100
242 -39 76 -70 152 -70 168 0 76 88 223 173 292 116 92 235 132 362 122 44 -3
107 -6 140 -6z m-1010 -827 l25 -25 0 -534 c1 -592 2 -574 -64 -586 -18 -4
-86 -5 -151 -3 -109 3 -118 5 -136 27 -18 22 -19 47 -19 555 0 472 2 534 16
554 25 36 50 42 181 39 116 -2 124 -3 148 -27z m2322 -4 l23 -27 0 -534 0
-534 -24 -28 c-24 -28 -26 -28 -148 -31 -146 -3 -186 10 -201 67 -4 18 -7 262
-5 541 4 630 -14 582 212 576 116 -3 120 -4 143 -30z m258 -246 l30 -30 3
-239 c4 -267 1 -282 -62 -316 -44 -24 -100 -13 -128 25 -17 24 -19 47 -19 280
0 234 1 256 19 279 37 49 108 50 157 1z m-3014 1 l29 -29 0 -259 c-1 -187 -4
-262 -13 -274 -29 -37 -92 -50 -140 -28 -48 22 -52 44 -52 298 0 130 3 248 8
263 9 34 50 57 100 58 30 0 45 -7 68 -29z m2369 -336 l0 -35 -225 0 -225 0 0
-192 0 -192 40 -57 c43 -62 48 -83 25 -116 -34 -48 -121 -29 -175 40 -22 27
-25 41 -25 112 -1 113 -33 203 -96 270 -33 35 -51 64 -57 91 l-8 39 -192 3
-192 2 -6 -42 c-6 -33 -19 -54 -57 -93 -55 -56 -63 -71 -87 -169 -14 -61 -15
-73 -3 -98 29 -58 -40 -151 -134 -178 -36 -11 -46 -11 -68 4 -41 27 -37 75 11
128 18 21 36 48 38 60 3 13 7 105 8 206 l3 182 -222 0 -223 0 0 35 0 35 935 0
935 0 0 -35z"/>
<path d="M1760 846 c-6 -6 -10 -75 -10 -176 l0 -167 -25 -11 c-32 -15 -32 -39
0 -54 l25 -11 2 -171 3 -171 123 -3 c149 -3 194 12 239 79 49 74 44 216 -10
292 l-20 29 24 51 c18 38 24 67 23 117 -1 94 -30 146 -103 181 -48 24 -66 27
-157 26 -57 0 -108 -5 -114 -11z m206 -134 c18 -11 34 -49 34 -77 0 -28 -16
-66 -34 -77 -19 -13 -53 -9 -67 8 -13 16 -15 99 -3 136 6 18 49 25 70 10z m7
-312 c32 -26 44 -79 28 -131 -13 -43 -39 -62 -79 -57 -27 3 -27 4 -30 91 -3
92 5 117 38 117 9 0 29 -9 43 -20z"/>
<path d="M3226 845 c-14 -15 -16 -60 -16 -378 0 -199 4 -368 9 -375 6 -11 37
-13 132 -10 111 3 127 5 157 26 18 13 42 42 54 65 19 38 21 61 24 267 1 124
-1 242 -6 263 -12 56 -56 113 -104 135 -56 27 -226 31 -250 7z m215 -142 c11
-12 14 -65 14 -240 0 -211 -1 -225 -19 -239 -24 -17 -68 -18 -84 -2 -13 13
-18 451 -6 482 8 22 77 21 95 -1z"/>
<path d="M200 839 c-76 -31 -102 -90 -101 -229 l1 -106 -29 -17 c-34 -20 -32
-39 5 -55 23 -11 24 -15 24 -122 0 -128 10 -155 71 -199 76 -56 170 -49 240
17 50 48 61 100 52 267 l-6 125 -88 0 -87 0 -7 -30 c-9 -40 2 -71 34 -97 23
-18 26 -28 26 -81 0 -67 -21 -102 -61 -102 -48 0 -53 28 -55 260 l-1 214 26
23 c22 19 30 21 50 12 30 -14 46 -49 46 -100 l0 -40 58 3 57 3 0 81 c0 73 -3
84 -29 118 -16 21 -44 44 -62 52 -38 16 -127 17 -164 3z"/>
<path d="M574 835 c-4 -8 27 -109 67 -223 l73 -207 5 -160 6 -160 56 -3 c56
-3 56 -3 63 29 3 17 6 91 6 164 0 145 -8 112 117 473 14 40 22 79 19 87 -8 21
-109 21 -126 0 -7 -8 -24 -54 -39 -102 -17 -56 -32 -88 -41 -88 -9 0 -24 32
-42 88 -15 49 -32 95 -39 103 -16 20 -118 19 -125 -1z"/>
<path d="M1103 844 c-10 -4 -13 -91 -13 -385 l0 -379 59 0 59 0 6 73 c3 39 6
103 6 141 0 38 2 71 5 74 12 13 16 0 80 -266 5 -21 10 -23 58 -20 l52 3 16 70
c9 39 22 96 28 128 20 95 35 67 41 -74 l5 -124 60 0 60 0 3 374 c2 293 -1 376
-10 383 -19 12 -146 7 -157 -6 -8 -10 -23 -80 -66 -320 -15 -84 -29 -111 -44
-87 -5 8 -26 101 -46 208 -21 106 -42 196 -49 200 -14 9 -136 14 -153 7z"/>
<path d="M2263 844 c-10 -4 -13 -79 -13 -323 0 -312 0 -319 23 -361 34 -64 92
-93 177 -88 74 4 104 21 144 83 l26 39 -2 326 -3 325 -55 0 -55 0 -5 -301 c-5
-279 -6 -304 -24 -323 -11 -12 -29 -21 -41 -21 -12 0 -30 9 -41 21 -18 19 -19
44 -24 323 l-5 301 -45 2 c-25 1 -51 0 -57 -3z"/>
<path d="M2740 465 l0 -385 118 0 c138 0 170 12 217 78 l30 44 0 262 0 262
-28 43 c-47 71 -73 81 -214 81 l-123 0 0 -385z m226 230 c11 -15 14 -64 14
-232 0 -200 -1 -214 -20 -233 -30 -30 -78 -27 -90 6 -13 32 -13 439 -1 462 13
24 79 23 97 -3z"/>
<path d="M3690 826 c0 -14 5 -37 11 -53 6 -15 39 -107 72 -203 l62 -175 5
-155 5 -155 58 -3 c31 -2 58 -2 58 0 1 2 5 84 9 183 l7 180 67 188 c37 103 65
195 62 203 -6 15 -101 20 -122 6 -6 -4 -25 -50 -41 -102 -18 -56 -36 -95 -43
-95 -8 0 -27 39 -44 90 -17 50 -35 96 -39 103 -5 7 -32 12 -68 12 -56 0 -59
-1 -59 -24z"/>
</g>
</svg>
